HIERARCHY
ROOT Hips
{
	OFFSET -3.958830 18.904000 13.208200
	CHANNELS 6 Xposition Yposition Zposition Zrotation Yrotation Xrotation 
	JOINT LHipJoint
	{
		OFFSET 0.000000 0.000000 0.000000
		CHANNELS 3 Zrotation Yrotation Xrotation
		JOINT LeftUpLeg
		{
			OFFSET 1.800000 -1.400000 0.085000
			CHANNELS 3 Zrotation Yrotation Xrotation
			JOINT LeftLeg
			{
				OFFSET 2.215000 -6.000000 0.000000
				CHANNELS 3 Zrotation Yrotation Xrotation
				JOINT LeftFoot
				{
					OFFSET 2.500000 -6.900000 0.000000
					CHANNELS 3 Zrotation Yrotation Xrotation
					JOINT LeftToeBase
					{
						OFFSET 0.200000 -0.500000 1.950000
						CHANNELS 3 Zrotation Yrotation Xrotation
						End Site
						{
							OFFSET 0.000000 0.000000 0.000000
						}
					}
				}
			}
		}
	}
	JOINT RHipJoint
	{
		OFFSET 0.000000 0.000000 0.000000
		CHANNELS 3 Zrotation Yrotation Xrotation
		JOINT RightUpLeg
		{
			OFFSET -1.800000 -1.400000 0.085000
			CHANNELS 3 Zrotation Yrotation Xrotation
			JOINT RightLeg
			{
				OFFSET -2.215000 -6.000000 0.000000
				CHANNELS 3 Zrotation Yrotation Xrotation
				JOINT RightFoot
				{
					OFFSET -2.500000 -6.900000 0.000000
					CHANNELS 3 Zrotation Yrotation Xrotation
					JOINT RightToeBase
					{
						OFFSET -0.200000 -0.500000 1.950000
						CHANNELS 3 Zrotation Yrotation Xrotation
						End Site
						{
							OFFSET 0.000000 0.000000 0.000000
						}
					}
				}
			}
		}
	}
	JOINT LowerBack
	{
		OFFSET 0.000000 0.000000 0.000000
		CHANNELS 3 Zrotation Yrotation Xrotation
		JOINT Spine
		{
			OFFSET -0.087000 1.940000 -0.288900
			CHANNELS 3 Zrotation Yrotation Xrotation
			JOINT Spine1
			{
				OFFSET 0.000000 1.950000 0.060000
				CHANNELS 3 Zrotation Yrotation Xrotation
				JOINT Neck
				{
					OFFSET 0.000000 0.000000 0.000000
					CHANNELS 3 Zrotation Yrotation Xrotation
					JOINT Neck1
					{
						OFFSET 0.000000 1.600000 0.340000
						CHANNELS 3 Zrotation Yrotation Xrotation
						JOINT Head
						{
							OFFSET 0.000000 1.667000 -0.240000
							CHANNELS 3 Zrotation Yrotation Xrotation
							End Site
							{
								OFFSET 0.000000 0.000000 0.000000
							}
						}
					}
				}
				JOINT LeftShoulder
				{
					OFFSET 0.000000 0.000000 0.000000
					CHANNELS 3 Zrotation Yrotation Xrotation
					JOINT LeftArm
					{
						OFFSET 2.700000 1.550000 -0.730000
						CHANNELS 3 Zrotation Yrotation Xrotation
						JOINT LeftForeArm
						{
							OFFSET 5.450000 0.000000 0.000000
							CHANNELS 3 Zrotation Yrotation Xrotation
							JOINT LeftHand
							{
								OFFSET 3.450000 0.000000 0.000000
								CHANNELS 3 Zrotation Yrotation Xrotation
								JOINT LeftHandIndex1
								{
									OFFSET 0.750000 0.000000 0.000000
									CHANNELS 3 Zrotation Yrotation Xrotation
									End Site
									{
										OFFSET 0.000000 0.000000 0.000000
									}
								}
							}
						}
					}
				}
				JOINT RightShoulder
				{
					OFFSET 0.000000 0.000000 0.000000
					CHANNELS 3 Zrotation Yrotation Xrotation
					JOINT RightArm
					{
						OFFSET -2.700000 1.550000 -0.730000
						CHANNELS 3 Zrotation Yrotation Xrotation
						JOINT RightForeArm
						{
							OFFSET -5.450000 0.000000 0.000000
							CHANNELS 3 Zrotation Yrotation Xrotation
							JOINT RightHand
							{
								OFFSET -3.450000 0.000000 0.000000
								CHANNELS 3 Zrotation Yrotation Xrotation
								JOINT RightHandIndex1
								{
									OFFSET -0.750000 0.000000 0.000000
									CHANNELS 3 Zrotation Yrotation Xrotation
									End Site
									{
										OFFSET 0.000000 0.000000 0.000000
									}
								}
							}
						}
					}
				}
			}
		}
	}
}
MOTION
Frames: 9
Frame Time: 0.016667
0.541250 17.375980 -2.095960 26.581002 -36.231234 -40.946411 -15.732340 13.357669 4.855081 1.497132 6.650592 -67.398506 9.855941 7.789165 24.905431 0.355568 5.184673 2.493537 0.739130 0.464580 0.755820 17.894607 -9.944459 0.923722 -24.279981 7.708566 3.649739 3.504087 -6.458669 33.398887 -0.878160 -5.928533 2.118208 -0.045140 -0.425890 0.322990 -1.408564 -5.581345 -8.472668 -14.817564 22.174524 66.839161 8.424309 17.716830 10.533023 3.228598 -14.654632 -17.380420 -24.658071 6.681771 34.384845 -1.253060 -3.286070 -28.891210 -9.604043 -12.959669 10.499168 -59.853113 22.555116 -31.071345 -80.404839 -14.986168 -5.911816 -2.670883 3.415341 0.542960 -0.527880 0.565200 0.179610 4.460589 44.072161 8.047227 15.372190 31.535039 -18.792736 -135.425173 20.305646 -83.983291 2.542284 -1.680471 0.356580 -0.139690 -0.516760 0.035550 
0.527800 17.273810 -1.960690 26.495020 -36.741193 -41.688764 -15.666328 13.554552 4.498254 0.267297 6.481557 -63.868354 11.449907 6.601970 13.930004 0.261505 3.766293 3.018530 0.761920 0.486160 0.778430 17.870208 -10.129601 1.066873 -24.866808 7.072672 6.258060 3.559988 -6.841069 31.816345 -0.920915 -6.086484 2.070835 -0.023650 -0.423750 0.341280 -1.475197 -5.629518 -8.313018 -13.927625 21.668029 66.181603 8.531556 18.519667 12.153903 2.567035 -14.321733 -16.903299 -23.385839 5.991825 32.867109 -1.905140 -2.919340 -27.765590 -7.904111 -11.608832 10.122811 -56.361872 22.355250 -29.226594 -84.358139 -14.978833 -5.517390 -2.649626 3.486974 0.514890 -0.500260 0.557240 0.189310 3.712750 42.559767 8.468496 16.411456 31.208176 -19.046057 -135.890533 21.017880 -87.312946 2.560548 -1.701572 0.364690 -0.164120 -0.537740 0.031430 
0.540580 17.204470 -1.812950 24.732753 -38.195382 -41.642429 -15.616515 13.406396 4.516663 1.704702 7.168707 -63.495701 12.707383 6.530856 14.536764 0.314825 3.965368 2.945539 0.803370 0.554570 0.800260 17.921301 -10.208129 1.160766 -23.649460 6.426161 9.079358 3.402497 -7.077921 30.741474 -1.005957 -6.234578 2.058644 0.007030 -0.432470 0.371670 -1.649230 -5.226057 -8.331560 -10.638523 18.988147 67.353575 6.851330 18.401687 12.612154 2.605531 -14.231237 -16.581133 -22.867609 5.951192 31.621176 -4.344980 -2.133630 -27.481790 -9.072067 -10.762723 9.553407 -51.803594 23.046224 -27.367541 -87.273125 -15.413638 -4.902282 -2.672877 3.540392 0.473860 -0.469040 0.574210 0.213500 4.518674 41.209382 8.925002 17.785714 30.958100 -18.494515 -136.405195 23.548731 -93.349353 2.572193 -1.701349 0.402080 -0.183550 -0.570250 0.044040 
0.551460 17.174840 -1.722870 23.768082 -37.202493 -39.926720 -15.714662 13.122053 4.935167 3.079356 5.902230 -65.541461 11.278063 6.657630 18.950113 0.458046 4.246925 2.832588 0.853080 0.668370 0.803090 17.909369 -9.955775 1.049115 -23.368922 5.934783 9.487145 3.710404 -7.376426 30.520002 -1.073075 -6.267477 2.075775 0.004110 -0.472250 0.435710 -1.510053 -5.413765 -8.508912 -10.904149 18.335641 66.225171 7.700651 17.372110 13.585904 2.853963 -13.062006 -17.130707 -21.161150 6.010979 32.373249 -7.216760 -0.590920 -26.893210 -9.217903 -12.192074 10.262581 -50.699717 23.254319 -27.094024 -88.854170 -18.231691 -2.314743 -2.645794 3.660400 0.412410 -0.455070 0.654440 0.275120 4.389944 40.647808 9.845837 20.035050 29.781940 -18.776563 -137.024012 25.165931 -100.097425 2.594246 -1.752867 0.512180 -0.246970 -0.643240 0.101440 
0.567410 17.213010 -1.666460 24.541540 -36.142147 -39.538029 -15.823089 13.122066 5.215327 5.250851 4.911253 -64.792359 7.485024 7.109365 22.128041 0.532313 4.465225 2.733565 0.910290 0.765710 0.830610 17.862276 -9.706202 0.843103 -23.738770 5.712016 8.796443 2.729217 -7.071285 31.037537 -1.093251 -6.125837 2.117835 0.010030 -0.535630 0.456250 -1.200186 -6.200853 -8.625061 -14.347224 19.466424 65.209656 10.640006 15.555391 13.881262 2.468672 -13.314493 -17.715886 -22.719496 7.692519 33.374076 -8.528960 0.459780 -28.237640 -11.646115 -14.288862 11.391699 -50.643729 24.744268 -27.904737 -89.270371 -21.111114 -0.112665 -2.602883 3.728890 0.399070 -0.496260 0.726680 0.303640 8.085027 41.755274 10.304724 20.080131 28.105891 -18.614794 -136.919038 31.608293 -110.197577 2.673547 -1.750636 0.589590 -0.280500 -0.699300 0.135050 
0.606730 17.266160 -1.595150 26.017326 -36.255333 -39.072726 -15.913840 12.666567 5.890089 9.077977 4.443582 -66.718416 3.185673 8.898473 29.787018 0.666052 5.840848 2.247722 0.940860 0.814570 0.863910 17.904611 -9.495078 0.506682 -24.345850 5.988941 5.877673 1.310576 -6.479513 33.108418 -1.073987 -5.929477 2.163555 0.010860 -0.590160 0.442970 -1.091085 -6.215415 -8.854405 -16.778531 20.352678 64.263575 12.218233 13.964569 13.034752 1.957159 -13.280013 -18.026126 -24.017545 8.931249 34.708765 -9.021300 1.065710 -30.681800 -12.706886 -15.612520 11.697677 -50.283437 24.158193 -27.580613 -87.649941 -21.691888 0.487691 -2.582365 3.715772 0.431420 -0.551160 0.784510 0.309400 10.510868 41.464723 10.997571 22.512642 26.983295 -18.191297 -137.438244 37.396222 -120.231046 2.734390 -1.727731 0.612370 -0.271490 -0.732290 0.139260 
0.677540 17.303040 -1.483340 26.804343 -37.987713 -38.965294 -15.884565 12.321492 6.295892 10.354085 2.916408 -68.371320 4.092028 9.897153 39.930851 0.871282 7.245301 1.766839 0.940160 0.810210 0.869370 18.007886 -9.497226 0.336780 -24.299974 6.798455 1.502655 0.357402 -6.076501 37.514000 -1.076852 -6.008296 2.099840 -0.016900 -0.626410 0.462800 -1.196469 -5.762065 -8.994809 -16.781726 19.790881 64.723656 11.912954 12.442250 10.931890 1.731793 -13.179507 -18.160084 -24.803752 10.217686 35.752439 -10.045530 1.928080 -31.792450 -14.529154 -16.202153 11.594078 -50.316899 24.392033 -27.565813 -85.223118 -21.692235 0.430441 -2.609953 3.719221 0.450510 -0.575880 0.809000 0.288110 12.977914 40.539047 11.548640 25.611699 25.720379 -17.506425 -138.633867 44.174438 -131.523438 2.768075 -1.781609 0.641550 -0.303700 -0.719520 0.132880 
0.729080 17.321920 -1.343950 27.474801 -41.422245 -38.911271 -15.894061 11.770465 6.782084 13.641972 3.641977 -70.391657 2.286260 12.844536 49.754454 1.219290 9.232950 1.132448 0.942630 0.806410 0.891830 18.150531 -9.293792 0.230604 -22.847262 8.354242 -3.392119 -0.672706 -5.507785 43.422763 -1.151303 -6.310565 1.979650 -0.040250 -0.674930 0.470200 -1.208986 -5.290577 -9.285461 -16.283466 19.749190 64.155823 11.753971 12.080299 8.561224 1.688781 -12.818406 -18.183099 -25.412150 10.809486 38.041869 -12.016560 2.701010 -32.014730 -16.461056 -16.246052 10.987244 -49.800643 23.714838 -26.713202 -81.673051 -19.752358 -0.955358 -2.632505 3.692473 0.476360 -0.605120 0.845520 0.278290 15.269030 39.241381 12.289299 29.815934 23.223523 -17.450553 -141.277253 51.916941 -144.829104 2.753333 -1.933124 0.658940 -0.330320 -0.730250 0.121770 
0.786470 17.357070 -1.217860 26.233065 -43.372912 -37.605121 -15.886745 11.578909 6.946737 15.172659 2.276455 -69.675683 2.095263 14.222058 56.785825 1.471047 10.300934 0.807510 0.923930 0.766280 0.901190 18.224407 -9.059833 0.387443 -20.433870 9.400036 -7.385155 -1.164729 -5.386971 48.437605 -1.281269 -6.679796 1.846162 -0.090010 -0.734830 0.466210 -1.219278 -5.252296 -9.477053 -15.281576 18.590169 64.945140 11.852401 10.780045 5.119025 2.263769 -12.665694 -18.632532 -28.186823 12.509065 41.395896 -13.258060 2.959640 -33.590580 -18.873109 -17.503614 10.797475 -49.658602 22.438290 -26.190266 -77.477199 -18.385217 -2.057886 -2.637850 3.640724 0.546750 -0.671040 0.886580 0.236840 17.145262 38.692367 12.740700 34.390070 19.212665 -19.539439 -146.000698 61.074393 -158.527257 2.655052 -2.048193 0.668230 -0.338370 -0.700880 0.100670 
